<svg version="1.1" id="Layer_1" xmlns="http://www.w3.org/2000/svg" x="0" y="0" viewBox="0 0 265.6 265.5" style="enable-background:new 0 0 265.6 265.5" xml:space="preserve"><style>.st0{fill:#fff}</style><path class="st0" d="M239.8 264.3c-6.4 0-12.8-2.4-17.7-7.3L8.6 43.4c-9.8-9.8-9.8-25.6 0-35.4C18.4-1.8 34.2-1.8 44 8l213.5 213.5c9.8 9.8 9.8 25.6 0 35.4-4.9 4.9-11.3 7.4-17.7 7.4z"/><path class="st0" d="M1.3 239.3c0-6.4 2.4-12.8 7.3-17.7L222.1 8.1c9.8-9.8 25.6-9.8 35.4 0 9.8 9.8 9.8 25.6 0 35.4L43.9 257c-9.8 9.8-25.6 9.8-35.4 0-4.8-4.9-7.2-11.3-7.2-17.7z"/></svg>